<?xml version="1.0" encoding="UTF-8" standalone="no"?><!DOCTYPE svg PUBLIC "-//W3C//DTD SVG 1.1//EN" "http://www.w3.org/Graphics/SVG/1.1/DTD/svg11.dtd"><svg width="100%" height="100%" viewBox="0 0 512 512" version="1.1" xmlns="http://www.w3.org/2000/svg" xmlns:xlink="http://www.w3.org/1999/xlink" xml:space="preserve" xmlns:serif="http://www.serif.com/" style="fill-rule:evenodd;clip-rule:evenodd;stroke-linejoin:round;stroke-miterlimit:1.41421;"><path d="M467,240H45c-24.951,0-45,20.375-45,45v182c0,24.814,20.186,45,45,45h422c24.814,0,45-20.186,45-45V285    C512,260.375,491.951,240,467,240z M135,452H75c-8.291,0-15-6.709-15-15V317c0-19.773,30-19.854,30,0v105h45    C154.773,422,154.854,452,135,452z M212,437c0,19.773-30,19.854-30,0V317c0-19.773,30-19.854,30,0V437z M331.546,320.633l-30,120    c-3.77,15.078-25.322,15.078-29.092,0l-30-120c-4.806-19.084,24.276-26.598,29.092-7.266L287,375.154l15.454-61.787    C307.28,293.995,336.342,301.587,331.546,320.633z M437,362c19.773,0,19.854,30,0,30h-45v30h45c19.773,0,19.854,30,0,30h-60    c-8.291,0-15-6.709-15-15V317c0-8.291,6.709-15,15-15h60c19.773,0,19.854,30,0,30h-45v30H437z" fill="#FFFFFF"/><path d="M107.549,86.338L231.211,210h49.578l60.745-60.745C261.557,75.432,161.547,49.206,107.549,86.338z" fill="#FFFFFF"/><path d="M86.418,107.629C68.978,133.143,65.266,169.195,75.461,210h113.328L86.418,107.629z" fill="#FFFFFF"/><path d="M255,0C191.926,0,132.528,22.994,85.814,64.603l0.313,0.313c65.114-49.125,184.183-22.482,276.594,63.151l63.464-63.464    C379.472,22.994,318.074,0,255,0z" fill="#FFFFFF"/><path d="M447.023,86.188l-63.208,63.208c17.662,19.048,32.985,39.51,45.965,60.604H467c15.928,0,30.648,5.072,42.808,13.574    C503.557,172.648,481.539,125.072,447.023,86.188z" fill="#FFFFFF"/><path d="M65.123,86.334l-0.146-0.146c-34.516,38.884-56.534,86.46-62.785,137.386c12.07-8.439,26.669-13.471,42.462-13.546    C34.175,161.316,41.248,117.755,65.123,86.334z" fill="#FFFFFF"/><path d="M362.608,170.603L323.211,210h70.908C384.672,196.428,374.209,183.188,362.608,170.603z" fill="#FFFFFF"/></svg>