<?xml version="1.0" encoding="UTF-8" standalone="no"?><!DOCTYPE svg PUBLIC "-//W3C//DTD SVG 1.1//EN" "http://www.w3.org/Graphics/SVG/1.1/DTD/svg11.dtd"><svg width="100%" height="100%" viewBox="0 0 19 19" version="1.1" xmlns="http://www.w3.org/2000/svg" xmlns:xlink="http://www.w3.org/1999/xlink" xml:space="preserve" xmlns:serif="http://www.serif.com/" style="fill-rule:evenodd;clip-rule:evenodd;stroke-linejoin:round;stroke-miterlimit:1.41421;"><path d="M17.102,8.789l-15.454,0c-0.914,0 -1.648,0.746 -1.648,1.648l0,6.665c0,0.909 0.739,1.648 1.648,1.648l15.454,0c0.909,0 1.648,-0.739 1.648,-1.648l0,-6.665c0,-0.902 -0.734,-1.648 -1.648,-1.648Zm-12.158,7.764l-2.197,0c-0.304,0 -0.55,-0.246 -0.55,-0.55l0,-4.394c0,-0.724 1.099,-0.727 1.099,0l0,3.845l1.648,0c0.724,0 0.727,1.099 0,1.099Zm2.82,-0.55c0,0.725 -1.099,0.727 -1.099,0l0,-4.394c0,-0.724 1.099,-0.727 1.099,0l0,4.394Zm4.378,-4.261l-1.099,4.394c-0.138,0.553 -0.927,0.553 -1.065,0l-1.099,-4.394c-0.176,-0.699 0.889,-0.974 1.065,-0.266l0.566,2.263l0.566,-2.263c0.177,-0.71 1.241,-0.432 1.066,0.266Zm3.861,1.515c0.725,0 0.727,1.098 0,1.098l-1.648,0l0,1.099l1.648,0c0.725,0 0.727,1.099 0,1.099l-2.197,0c-0.303,0 -0.549,-0.246 -0.549,-0.55l0,-4.394c0,-0.304 0.246,-0.549 0.549,-0.549l2.197,0c0.725,0 0.727,1.098 0,1.098l-1.648,0l0,1.099l1.648,0Z" style="fill-rule:nonzero;"/><path d="M3.939,3.162l4.528,4.528l1.816,0l2.224,-2.224c-2.928,-2.704 -6.591,-3.664 -8.568,-2.304Z" style="fill-rule:nonzero;"/><path d="M3.165,3.941c-0.639,0.935 -0.775,2.255 -0.402,3.749l4.151,0l-3.749,-3.749Z" style="fill-rule:nonzero;"/><path d="M9.338,0c-2.309,0 -4.485,0.842 -6.195,2.366l0.011,0.011c2.385,-1.799 6.745,-0.823 10.129,2.313l2.324,-2.324c-1.71,-1.524 -3.959,-2.366 -6.269,-2.366Z" style="fill-rule:nonzero;"/><path d="M16.37,3.156l-2.314,2.315c0.647,0.698 1.208,1.447 1.683,2.219l1.363,0c0.583,0 1.122,0.186 1.568,0.498c-0.229,-1.865 -1.036,-3.608 -2.3,-5.032Z" style="fill-rule:nonzero;"/><path d="M2.385,3.162l-0.005,-0.006c-1.264,1.424 -2.071,3.167 -2.3,5.032c0.442,-0.31 0.977,-0.494 1.555,-0.497c-0.383,-1.783 -0.124,-3.379 0.75,-4.529Z" style="fill-rule:nonzero;"/><path d="M13.279,6.248l-1.443,1.442l2.597,0c-0.346,-0.497 -0.729,-0.981 -1.154,-1.442Z" style="fill-rule:nonzero;"/></svg>